<?xml version="1.0" encoding="UTF-8"?>
<svg xmlns="http://www.w3.org/2000/svg" xmlns:xlink="http://www.w3.org/1999/xlink" viewBox="0 0 30 30" width="30px" height="30px">
<g id="surface83807937">
<path style=" stroke:none;fill-rule:nonzero;fill:rgb(31.37255%,24.313726%,9.019608%);fill-opacity:1;" d="M 8.398438 2.398438 C 5.09375 2.398438 2.398438 5.09375 2.398438 8.398438 L 2.398438 21.601562 C 2.398438 24.90625 5.09375 27.601562 8.398438 27.601562 L 21.601562 27.601562 C 24.90625 27.601562 27.601562 24.90625 27.601562 21.601562 L 27.601562 8.398438 C 27.601562 5.09375 24.90625 2.398438 21.601562 2.398438 Z M 7.800781 9.601562 L 22.199219 9.601562 C 22.308594 9.601562 22.410156 9.613281 22.507812 9.640625 L 16.609375 15.535156 C 15.71875 16.421875 14.273438 16.421875 13.386719 15.535156 L 7.492188 9.640625 C 7.589844 9.613281 7.691406 9.601562 7.800781 9.601562 Z M 6.640625 10.492188 L 11.152344 15 L 6.640625 19.507812 C 6.613281 19.410156 6.601562 19.308594 6.601562 19.199219 L 6.601562 10.800781 C 6.601562 10.691406 6.613281 10.589844 6.640625 10.492188 Z M 23.359375 10.492188 C 23.386719 10.589844 23.398438 10.691406 23.398438 10.800781 L 23.398438 19.199219 C 23.398438 19.308594 23.386719 19.410156 23.359375 19.507812 L 18.839844 15 Z M 12 15.847656 L 12.535156 16.386719 C 13.210938 17.0625 14.105469 17.398438 14.992188 17.398438 C 15.886719 17.398438 16.777344 17.0625 17.453125 16.386719 L 17.992188 15.847656 L 22.503906 20.359375 C 22.410156 20.386719 22.308594 20.398438 22.199219 20.398438 L 7.800781 20.398438 C 7.691406 20.398438 7.589844 20.386719 7.492188 20.359375 Z M 12 15.847656 "/>
</g>
</svg>
