<?xml version="1.0" standalone="no"?>
<!DOCTYPE svg PUBLIC "-//W3C//DTD SVG 20010904//EN"
 "http://www.w3.org/TR/2001/REC-SVG-20010904/DTD/svg10.dtd">
<svg version="1.0" xmlns="http://www.w3.org/2000/svg"
 width="500.000000pt" height="500.000000pt" viewBox="0 0 500.000000 500.000000"
 preserveAspectRatio="xMidYMid meet">
<metadata>
Created by potrace 1.14, written by Peter Selinger 2001-2017
</metadata>
<g transform="translate(0.000000,500.000000) scale(0.100000,-0.100000)"
fill="#000000" stroke="none">
<path d="M1317 3160 l-495 -990 329 0 329 0 163 329 162 330 332 0 332 1 -163
328 c-90 180 -238 477 -329 660 l-165 333 -495 -991z"/>
<path d="M2798 3468 c-8 -13 -94 -185 -193 -383 -98 -198 -240 -485 -317 -637
l-138 -278 327 0 328 1 165 330 164 331 165 -331 166 -331 327 0 328 0 -18 36
c-9 20 -157 316 -328 658 l-310 621 -326 3 -326 2 -14 -22z"/>
<path d="M1395 1606 c-64 -28 -106 -109 -90 -173 17 -70 69 -105 218 -148 58
-17 99 -36 122 -56 31 -27 35 -37 35 -79 0 -42 -4 -52 -34 -78 -64 -56 -201
-66 -290 -22 -28 14 -43 16 -51 9 -25 -25 92 -69 185 -69 158 0 257 92 220
204 -20 62 -57 85 -214 131 -117 36 -160 72 -159 137 2 92 44 123 168 123 65
0 88 -5 117 -22 21 -12 40 -18 43 -12 10 15 -5 30 -49 50 -49 22 -175 25 -221
5z"/>
<path d="M2126 1580 c-52 -113 -236 -556 -236 -568 0 -44 35 18 112 199 48
112 99 231 113 264 l26 60 105 -245 c57 -135 104 -246 104 -247 0 -1 -75 -4
-167 -5 -142 -3 -168 -5 -168 -18 0 -13 29 -15 194 -18 153 -2 192 0 188 10
-3 7 -44 105 -92 218 -48 113 -104 245 -125 295 l-38 90 -16 -35z"/>
<path d="M3401 1565 c-13 -27 -35 -81 -51 -120 -15 -38 -62 -150 -104 -247
-42 -98 -76 -182 -76 -188 0 -5 6 -10 14 -10 8 0 48 84 104 218 110 264 133
315 137 310 5 -4 205 -476 205 -482 0 -3 -73 -7 -162 -8 -146 -3 -163 -5 -166
-20 -3 -17 11 -18 187 -18 105 0 191 3 191 6 0 4 -11 32 -25 63 -13 31 -63
148 -111 261 -47 113 -94 223 -103 245 l-18 40 -22 -50z"/>
<path d="M2555 1523 c18 -43 70 -166 116 -273 l84 -195 5 -130 c4 -107 8 -130
20 -130 12 0 16 23 20 130 l5 130 83 192 c45 106 86 203 91 215 5 13 21 49 35
81 l26 57 -200 0 c-171 0 -200 -2 -200 -15 0 -13 26 -15 175 -15 96 0 175 -2
175 -4 0 -2 -29 -70 -63 -152 -35 -82 -81 -191 -103 -241 -21 -51 -41 -93 -44
-93 -3 0 -55 117 -115 260 -81 192 -114 260 -127 260 -14 0 -12 -12 17 -77z"/>
</g>
</svg>
